<?xml version="1.0" encoding="UTF-8"?>
<svg version="1.1" xmlns="http://www.w3.org/2000/svg" width="640" height="400">
<path d="M0 0 C211.2 0 422.4 0 640 0 C640 132 640 264 640 400 C428.8 400 217.6 400 0 400 C0 268 0 136 0 0 Z " fill="#FDFDFB" transform="translate(0,0)"/>
<path d="M0 0 C9.26599643 -0.42839367 17.85024508 0.60063921 26.88330078 2.55566406 C28.99875365 2.99973837 31.11876528 3.39072288 33.24609375 3.7734375 C45.86464525 6.15670524 57.31744839 10.74776041 69 16 C69.75087891 16.33547852 70.50175781 16.67095703 71.27539062 17.01660156 C100.91196975 30.46662801 127.33687857 53.56203841 140 84 C141.55862425 88.61928904 142.87328246 93.25754347 144 98 C144.26490234 99.04788696 144.26490234 99.04788696 144.53515625 100.11694336 C146.30478573 107.7946209 146.48662083 115.46006016 146.5 123.3125 C146.50134949 124.03042725 146.50269897 124.74835449 146.50408936 125.48803711 C146.41676787 155.07941015 137.99297637 184.02772685 122 209 C121.34 209 120.68 209 120 209 C119.90501221 208.14583496 119.81002441 207.29166992 119.7121582 206.41162109 C117.74475511 189.01207164 115.48870753 171.96358853 111 155 C110.81356934 154.26362305 110.62713867 153.52724609 110.43505859 152.76855469 C102.69317051 122.3938807 86.7150457 95.42247637 65 73 C64.30342285 72.27272705 64.30342285 72.27272705 63.59277344 71.53076172 C57.78646502 65.48168782 51.80498592 59.92311327 45 55 C46.57024463 58.64126997 48.82555685 61.22451169 51.4375 64.1875 C70.25806811 86.20414403 84.88646652 115.15208719 93.83984375 142.49609375 C94.80271091 145.4041471 95.86399254 148.18468247 97.0625 151 C101.63119444 162.25041005 104.39200974 173.91021329 106.30859375 185.86328125 C106.74732442 188.58954213 107.25507772 191.28346817 107.84765625 193.98046875 C109.56008382 201.79391734 110.40220257 209.00063771 110 217 C103.72461469 216.4936905 98.74176383 214.96763767 93 212.4375 C92.17185791 212.07889893 91.34371582 211.72029785 90.49047852 211.35083008 C71.73171275 203.13477454 53.3838063 193.69354732 38 180 C37.12859375 179.24847656 36.2571875 178.49695313 35.359375 177.72265625 C13.57334818 158.64357587 -1.36894077 132.0899037 -8 104 C-8.2990625 102.81019531 -8.598125 101.62039062 -8.90625 100.39453125 C-15.87855509 69.06621553 -12.22087782 29.51389413 0 0 Z " fill="#299C3D" transform="translate(161,56)"/>
<path d="M0 0 C4.36588511 2.56717422 7.71403063 5.6275764 10.98828125 9.4765625 C17.6855885 14.91168492 25.61184492 14.56745349 33.7734375 14.65234375 C39.67034553 14.80492737 44.16022862 15.45586476 48.6640625 19.66015625 C52.13724286 24.20200749 53.09383061 26.52861413 53.51245117 32.24511719 C54.25742857 41.59612581 55.56789638 48.25032001 62.828125 54.7421875 C64.01612533 55.72835552 65.20867738 56.70907235 66.40625 57.68359375 C69.95625725 60.85539199 71.68734353 64.03159061 72.43359375 68.734375 C72.89901021 77.60178326 69.56544452 82.29354529 63.89453125 88.6875 C63.41757812 89.18378906 62.940625 89.68007812 62.44921875 90.19140625 C57.94525093 96.28283814 57.70703125 101.69382738 57.70703125 109 C57.37012471 121.20842915 57.37012471 121.20842915 52.90625 126.55859375 C48.80724155 129.96170429 44.37731682 132.125 39.01953125 132.125 C39.01953125 140.045 39.01953125 147.965 39.01953125 156.125 C37.28832031 156.19976562 35.55710937 156.27453125 33.7734375 156.3515625 C9.49273341 157.61280827 -15.82480521 161.41313303 -37.09765625 174.03125 C-41.79808915 176.76179193 -46.82868551 178.40773892 -51.98046875 180.125 C-51.98046875 164.285 -51.98046875 148.445 -51.98046875 132.125 C-54.29046875 131.465 -56.60046875 130.805 -58.98046875 130.125 C-63.36808952 126.55368077 -67.31022569 121.81111356 -68.34692383 116.10961914 C-68.48798464 113.98468701 -68.53339603 111.87945104 -68.54296875 109.75 C-68.96280168 98.36325212 -71.17936471 92.39914641 -78.921875 83.703125 C-82.78861042 78.86053415 -83.4556838 74.58980099 -83.27734375 68.53515625 C-82.68495878 63.72592561 -80.06570614 61.13993131 -76.62890625 57.92578125 C-67.13017948 49.00146126 -64.97615591 41.82068102 -64.30859375 29.015625 C-63.71634518 23.79819715 -61.17632556 21.20418785 -57.41796875 17.8125 C-54.10260739 15.51724983 -51.59598196 15.00943237 -47.6640625 14.984375 C-35.31148476 14.75628014 -26.70027325 14.08624305 -17.66796875 4.9375 C-17.07371094 4.26332031 -16.47945313 3.58914062 -15.8671875 2.89453125 C-11.54415363 -1.1599912 -5.51643085 -2.43723967 0 0 Z " fill="#FCC31E" transform="translate(405.98046875,14.875)"/>
<path d="M0 0 C0.8827827 27.6605245 -10.40602799 54.14891608 -28 75 C-28.7528125 75.89332031 -29.505625 76.78664063 -30.28125 77.70703125 C-44.69549481 94.22758296 -61.61009226 105.6165337 -83 111 C-83.99 111 -84.98 111 -86 111 C-86 111.66 -86 112.32 -86 113 C-98.10356583 116.25865234 -109.82081113 117.38418202 -122.3125 117.3125 C-122.97838135 117.30968018 -123.6442627 117.30686035 -124.33032227 117.30395508 C-149.58217244 117.13927585 -149.58217244 117.13927585 -156 115 C-152.39417786 80.07196166 -132.32586582 53.91625738 -106.18359375 31.66796875 C-87.85321498 16.96800754 -63.43349569 5.55545209 -40 3 C-38.9275 2.67 -37.855 2.34 -36.75 2 C-24.93761854 -1.14996839 -12.13002108 -0.1107998 0 0 Z " fill="#14692D" transform="translate(454,182)"/>
<path d="M0 0 C0.69416016 -0.01224609 1.38832031 -0.02449219 2.10351562 -0.03710938 C3.92470901 -0.04239842 5.7453692 0.06580793 7.5625 0.1875 C9.83915198 2.46415198 10.28716323 3.92401751 11.26171875 6.96484375 C11.58068115 7.94509521 11.89964355 8.92534668 12.22827148 9.93530273 C12.56544189 10.98790283 12.9026123 12.04050293 13.25 13.125 C15.87791862 21.17235697 18.57123889 29.18169254 21.5 37.125 C21.79414795 37.9286499 22.0882959 38.7322998 22.39135742 39.56030273 C23.51333452 43.14477918 23.51333452 43.14477918 25.5625 46.1875 C25.93536133 45.14408447 26.30822266 44.10066895 26.69238281 43.02563477 C28.09044667 39.11618443 29.49305674 35.20837761 30.89697266 31.30102539 C31.50138424 29.61689295 32.10459892 27.93233042 32.70654297 26.24731445 C33.57717619 23.81084088 34.45225173 21.3760003 35.328125 18.94140625 C35.59183899 18.20040176 35.85555298 17.45939728 36.1272583 16.69593811 C41.25383819 2.49616181 41.25383819 2.49616181 43.5625 0.1875 C45.91563555 0.11478259 48.27083668 0.10379132 50.625 0.125 C52.56052734 0.13853516 52.56052734 0.13853516 54.53515625 0.15234375 C55.53417969 0.16394531 56.53320312 0.17554688 57.5625 0.1875 C59.5412502 6.26989011 60.33645996 12.2990683 61.0703125 18.640625 C61.26583206 20.28463287 61.26583206 20.28463287 61.46530151 21.96185303 C61.73869266 24.27452381 62.0091515 26.5875429 62.27685547 28.90087891 C62.68464555 32.41291643 63.10535257 35.92323768 63.52734375 39.43359375 C63.79244998 41.69001227 64.05679742 43.9465201 64.3203125 46.203125 C64.44528107 47.23995422 64.57024963 48.27678345 64.69900513 49.34503174 C65.457651 56.00339782 65.67201718 62.48559956 65.5625 69.1875 C61.2725 69.1875 56.9825 69.1875 52.5625 69.1875 C50.98626647 64.4587994 50.26562631 61.53979254 50 56.7578125 C49.88785156 54.94603516 49.88785156 54.94603516 49.7734375 53.09765625 C49.66902344 51.22400391 49.66902344 51.22400391 49.5625 49.3125 C48.94903084 38.10737571 48.94903084 38.10737571 46.5625 27.1875 C41.94272919 38.62634741 37.40816478 50.08866256 33.08984375 61.64526367 C32.61417969 62.90947144 32.61417969 62.90947144 32.12890625 64.19921875 C31.84990479 64.94647217 31.57090332 65.69372559 31.28344727 66.46362305 C30.5625 68.1875 30.5625 68.1875 29.5625 69.1875 C27.63671875 69.49609375 27.63671875 69.49609375 25.25 69.625 C24.47011719 69.68558594 23.69023437 69.74617188 22.88671875 69.80859375 C20.5625 69.1875 20.5625 69.1875 18.453125 66.69921875 C16.31724392 62.73195203 14.93915324 58.85576412 13.625 54.5625 C11.90652727 49.15029854 10.10381885 43.89197055 7.8125 38.6875 C5.60722203 33.61039702 4.37271109 28.65340168 3.5625 23.1875 C2.9025 23.1875 2.2425 23.1875 1.5625 23.1875 C1.58497803 23.85434814 1.60745605 24.52119629 1.63061523 25.20825195 C1.78434645 33.63796501 0.96785921 41.79328845 -0.09155273 50.13696289 C-0.3792619 52.40865102 -0.65422175 54.68164115 -0.92773438 56.95507812 C-2.29517923 68.04517923 -2.29517923 68.04517923 -3.4375 69.1875 C-7.43734478 69.33096646 -11.43579982 69.22962316 -15.4375 69.1875 C-15.64728735 60.59461735 -15.0428222 52.31853351 -13.94140625 43.80078125 C-13.78840561 42.57715378 -13.63540497 41.35352631 -13.47776794 40.09281921 C-13.15594643 37.5318922 -12.83054905 34.9714122 -12.50170898 32.41137695 C-12.16476588 29.78453241 -11.83098524 27.15757271 -11.50366211 24.52954102 C-11.02958621 20.72346976 -10.54930144 16.91824266 -10.06640625 13.11328125 C-9.91845108 11.93115555 -9.77049591 10.74902985 -9.61805725 9.53108215 C-9.47798752 8.44872787 -9.33791779 7.3663736 -9.19360352 6.2512207 C-9.07146988 5.29480179 -8.94933624 4.33838287 -8.82350159 3.35298157 C-7.98441658 -1.35431287 -3.94125547 0.0036392 0 0 Z " fill="#1C6633" transform="translate(310.4375,319.8125)"/>
<path d="M0 0 C1.32 0 2.64 0 4 0 C7.66721181 4.44898177 9.64723925 9.55041269 11.75 14.875 C12.06582031 15.65875 12.38164062 16.4425 12.70703125 17.25 C13.47739828 19.16424535 14.23955247 21.08179246 15 23 C15.68102783 23.0501123 16.36205566 23.10022461 17.0637207 23.15185547 C20.14740521 23.38386176 23.22987999 23.62927062 26.3125 23.875 C27.9202832 23.99294922 27.9202832 23.99294922 29.56054688 24.11328125 C30.58857422 24.19707031 31.61660156 24.28085938 32.67578125 24.3671875 C34.0975769 24.47716064 34.0975769 24.47716064 35.5480957 24.58935547 C38 25 38 25 41 27 C40.56017677 31.93737045 39.4803362 34.12687189 35.875 37.5 C35.070625 38.27214844 34.26625 39.04429688 33.4375 39.83984375 C31.31816804 41.71803377 29.1480933 43.38059427 26.875 45.0625 C25.16492964 46.40035747 25.16492964 46.40035747 24 48 C23.94752601 51.20091341 24.16106527 53.02559504 25 56 C26.4849662 62.04747104 27.60124405 67.7358759 27 74 C26.67 74.33 26.34 74.66 26 75 C20.26687317 74.63529728 16.11399298 72.87584791 11.125 70.125 C10.44953125 69.77308594 9.7740625 69.42117187 9.078125 69.05859375 C4.12829719 66.38489158 4.12829719 66.38489158 3 63 C2.09121094 63.67095703 2.09121094 63.67095703 1.1640625 64.35546875 C-15.24253076 76.19345681 -15.24253076 76.19345681 -23 75 C-23.33 74.67 -23.66 74.34 -24 74 C-23.93517852 71.91392691 -23.79755065 69.82993487 -23.625 67.75 C-23.53476562 66.61046875 -23.44453125 65.4709375 -23.3515625 64.296875 C-22.97420356 60.75808672 -22.34587954 57.37831695 -21.48046875 53.9296875 C-21.09598391 51.23316717 -21.1585924 49.62084377 -22 47 C-25.6394625 42.85583546 -29.74921298 39.49643751 -34 36 C-37.93240169 32.40558986 -37.93240169 32.40558986 -38.4375 29.375 C-38.293125 28.59125 -38.14875 27.8075 -38 27 C-35.05021274 25.03347516 -34.0794785 24.69562168 -30.7265625 24.3671875 C-29.9015625 24.28339844 -29.0765625 24.19960937 -28.2265625 24.11328125 C-27.36804688 24.03464844 -26.50953125 23.95601562 -25.625 23.875 C-24.77421875 23.78863281 -23.9234375 23.70226562 -23.046875 23.61328125 C-19.01895337 23.21801791 -15.05251157 22.88326098 -11 23 C-10.91621094 22.34386719 -10.83242188 21.68773438 -10.74609375 21.01171875 C-9.74367848 16.96531995 -7.95373699 13.51129093 -6.0625 9.8125 C-5.70220703 9.08869141 -5.34191406 8.36488281 -4.97070312 7.61914062 C-2.2675047 2.2675047 -2.2675047 2.2675047 0 0 Z " fill="#ED9803" transform="translate(399,51)"/>
<path d="M0 0 C15.48382331 0 20.28052414 0.78665143 30.54296875 10.87890625 C35.85664153 15.46606733 40.41577318 16.56625534 47.2578125 16.34375 C54.355646 15.45399309 58.52208404 11.73478045 63.2734375 6.6796875 C70.84361666 -0.68496644 79.05003954 -0.0994996 89 0 C89 7.59 89 15.18 89 23 C87.34097656 23.14695313 85.68195313 23.29390625 83.97265625 23.4453125 C60.12712413 25.72395214 34.83670525 29.45597231 13.88671875 41.90625 C9.50218237 44.44801022 4.69417917 46.12232833 0 48 C0 32.16 0 16.32 0 0 Z " fill="#EE9905" transform="translate(355,147)"/>
<path d="M0 0 C1.25425781 0.00902344 2.50851563 0.01804687 3.80078125 0.02734375 C4.75339844 0.03894531 5.70601562 0.05054688 6.6875 0.0625 C6.6875 0.7225 6.6875 1.3825 6.6875 2.0625 C7.409375 2.145 8.13125 2.2275 8.875 2.3125 C12.40693208 3.25434856 14.10124057 4.47624057 16.6875 7.0625 C19.4848682 12.41643115 20.11437865 16.60167591 20.015625 22.5859375 C20.01375183 23.37271881 20.01187866 24.15950012 20.00994873 24.97012329 C20.00326871 26.61896049 19.98943578 28.26778294 19.96875 29.91650391 C19.93733272 32.45099464 19.92774795 34.98486424 19.921875 37.51953125 C19.91271445 39.12500766 19.90234172 40.73047771 19.890625 42.3359375 C19.88425018 43.47644058 19.88425018 43.47644058 19.87774658 44.63998413 C19.8047307 49.9452693 19.8047307 49.9452693 18.6875 51.0625 C16.50110547 51.13508946 14.31249611 51.14623783 12.125 51.125 C10.32869141 51.11146484 10.32869141 51.11146484 8.49609375 51.09765625 C7.56925781 51.08605469 6.64242187 51.07445312 5.6875 51.0625 C5.3575 50.0725 5.0275 49.0825 4.6875 48.0625 C3.84058594 48.54589844 2.99367187 49.02929688 2.12109375 49.52734375 C-3.57160252 52.07254243 -9.19937947 51.95606518 -15.3125 51.0625 C-19.51229062 48.91534016 -21.82377204 46.52868387 -23.3125 42.0625 C-23.70982046 37.55444088 -23.84902485 33.43361906 -22.1875 29.1875 C-18.31825247 24.8023528 -13.88023046 22.58945841 -8.3125 21.0625 C-4.6640625 20.8671875 -4.6640625 20.8671875 -0.9375 20.9375 C0.30773437 20.95554687 1.55296875 20.97359375 2.8359375 20.9921875 C3.77695313 21.01539063 4.71796875 21.03859375 5.6875 21.0625 C5.3575 18.7525 5.0275 16.4425 4.6875 14.0625 C-2.20852645 10.61448678 -8.26862428 11.89515363 -15.3125 14.0625 C-16.6325 14.0625 -17.9525 14.0625 -19.3125 14.0625 C-19.3125 10.7625 -19.3125 7.4625 -19.3125 4.0625 C-12.62360078 1.04593761 -7.43251322 -0.06946274 0 0 Z " fill="#1B6532" transform="translate(230.3125,337.9375)"/>
<path d="M0 0 C5.76146266 2.98472885 9.57125984 7.07841788 12.34375 12.9140625 C13.7446693 17.58886928 13.53321534 22.48959697 13.0625 27.3125 C12.0625 28.3125 12.0625 28.3125 9.01147461 28.42602539 C7.66258729 28.42586634 6.31369386 28.42017612 4.96484375 28.41015625 C3.90155602 28.40803383 3.90155602 28.40803383 2.81678772 28.40586853 C0.54448288 28.40025443 -1.72772475 28.38769963 -4 28.375 C-5.53710796 28.36998681 -7.07421745 28.36542359 -8.61132812 28.36132812 C-12.38675642 28.35028042 -16.16211171 28.33300641 -19.9375 28.3125 C-19.3366213 29.61913395 -18.72360466 30.92019099 -18.10546875 32.21875 C-17.76539795 32.94384766 -17.42532715 33.66894531 -17.07495117 34.41601562 C-15.99549529 36.57277586 -15.99549529 36.57277586 -13.25 37.8125 C-6.58680264 38.81826564 -1.30796439 38.68290536 5.0625 36.3125 C6.3825 36.3125 7.7025 36.3125 9.0625 36.3125 C9.0625 39.6125 9.0625 42.9125 9.0625 46.3125 C1.16870365 50.74410497 -5.96582452 51.39330952 -14.9375 50.3125 C-22.37924569 48.19326271 -27.1787795 44.01724467 -30.9375 37.3125 C-34.28855813 30.62193912 -34.19401981 20.8563473 -32.21484375 13.69921875 C-31.27000692 11.72921483 -30.24284095 10.06148624 -28.9375 8.3125 C-28.174375 7.24 -27.41125 6.1675 -26.625 5.0625 C-19.09150306 -2.64619455 -10.08039186 -4.12303173 0 0 Z " fill="#1C6633" transform="translate(466.9375,339.6875)"/>
<path d="M0 0 C0 0.66 0 1.32 0 2 C0.556875 2.20625 1.11375 2.4125 1.6875 2.625 C6.45612675 5.46039969 9.33196973 9.79967035 11 15 C11.23046875 18.078125 11.23046875 18.078125 11.1875 21.25 C11.18105469 22.30703125 11.17460937 23.3640625 11.16796875 24.453125 C11 27 11 27 10 28 C7.6243148 28.0883967 5.27791326 28.11530305 2.90234375 28.09765625 C1.83905602 28.09553383 1.83905602 28.09553383 0.75428772 28.09336853 C-1.51801712 28.08775443 -3.79022475 28.07519963 -6.0625 28.0625 C-7.59960796 28.05748681 -9.13671745 28.05292359 -10.67382812 28.04882812 C-14.44925642 28.03778042 -18.22461171 28.02050641 -22 28 C-20.08747109 33.36365831 -20.08747109 33.36365831 -15.875 36.9375 C-9.70606078 39.05480541 -3.89566119 38.62029386 2 36 C3.65 36 5.3 36 7 36 C7 39.3 7 42.6 7 46 C-1.51207255 49.83877782 -10.61432606 52.04623806 -19.828125 49.09375 C-27.4924293 45.51401506 -31.67609807 40.82695344 -35 33 C-35.31243618 30.30910824 -35.47852983 27.9294405 -35.4375 25.25 C-35.42847656 24.54625244 -35.41945312 23.84250488 -35.41015625 23.11743164 C-35.14084225 14.96226698 -33.24048094 8.76642752 -27.25 3 C-19.94411372 -2.72878536 -8.40362578 -4.48193375 0 0 Z " fill="#1B6532" transform="translate(190,340)"/>
<path d="M0 0 C1.093125 0.00257813 2.18625 0.00515625 3.3125 0.0078125 C4.405625 0.00523437 5.49875 0.00265625 6.625 0 C9.3125 0.1328125 9.3125 0.1328125 10.3125 1.1328125 C10.40615006 2.8820997 10.42994438 4.63517504 10.42602539 6.38696289 C10.42594986 7.50804947 10.42587433 8.62913605 10.42579651 9.78419495 C10.42063522 11.0039653 10.41547394 12.22373566 10.41015625 13.48046875 C10.4087413 14.72203232 10.40732635 15.96359589 10.40586853 17.24278259 C10.40120591 20.54886741 10.39221497 23.85488396 10.38116455 27.16094971 C10.37094827 30.53242389 10.36631574 33.90390532 10.36132812 37.27539062 C10.35112279 43.89456989 10.33155106 50.51362903 10.3125 57.1328125 C19.2225 57.1328125 28.1325 57.1328125 37.3125 57.1328125 C37.3125 60.7628125 37.3125 64.3928125 37.3125 68.1328125 C35.2424868 70.2028257 30.82484075 69.29690945 27.97265625 69.30078125 C27.13536484 69.30410965 26.29807343 69.30743805 25.43540955 69.31086731 C23.66080272 69.31594006 21.88618633 69.31827553 20.11157227 69.31811523 C17.38997744 69.32030047 14.66878857 69.33844883 11.94726562 69.35742188 C10.22656389 69.36035592 8.50586023 69.36234064 6.78515625 69.36328125 C5.96741226 69.37046677 5.14966827 69.37765228 4.30714417 69.38505554 C-1.45867796 69.36163454 -1.45867796 69.36163454 -3.6875 67.1328125 C-3.93473816 64.39341736 -3.93473816 64.39341736 -3.93041992 60.86303711 C-3.93349655 59.54504623 -3.93657318 58.22705536 -3.93974304 56.86912537 C-3.93284581 55.42446723 -3.92557888 53.97981081 -3.91796875 52.53515625 C-3.91677708 51.06067444 -3.91632376 49.58619186 -3.9165802 48.11170959 C-3.915015 45.02063245 -3.90672186 41.92967107 -3.89331055 38.83862305 C-3.87630575 34.86815497 -3.8724966 30.89781403 -3.87325573 26.9273138 C-3.87298438 23.88280515 -3.86750909 20.83832451 -3.86025429 17.79382515 C-3.8570631 16.32933324 -3.85509917 14.86483814 -3.85436058 13.40034294 C-3.85220263 11.3579482 -3.84267366 9.3155652 -3.83276367 7.27319336 C-3.82895187 6.10896347 -3.82514008 4.94473358 -3.82121277 3.745224 C-3.63901269 0.18549228 -3.56823833 0.17633736 0 0 Z " fill="#1B6532" transform="translate(112.6875,319.8671875)"/>
<path d="M0 0 C1.81564453 0.00580078 1.81564453 0.00580078 3.66796875 0.01171875 C6.8125 0.3125 6.8125 0.3125 9.8125 2.3125 C9.4825 5.2825 9.1525 8.2525 8.8125 11.3125 C2.8725 11.8075 2.8725 11.8075 -3.1875 12.3125 C-3.5175 14.9525 -3.8475 17.5925 -4.1875 20.3125 C-3.40503906 20.30089844 -2.62257813 20.28929687 -1.81640625 20.27734375 C-0.80449219 20.26832031 0.20742188 20.25929688 1.25 20.25 C2.25933594 20.23839844 3.26867187 20.22679687 4.30859375 20.21484375 C6.8125 20.3125 6.8125 20.3125 7.8125 21.3125 C7.9453125 23.125 7.9453125 23.125 7.9375 25.3125 C7.94136719 26.3953125 7.94136719 26.3953125 7.9453125 27.5 C7.8125 29.3125 7.8125 29.3125 6.8125 30.3125 C4.95962498 30.38476502 3.10416122 30.3963122 1.25 30.375 C0.23808594 30.36597656 -0.77382813 30.35695313 -1.81640625 30.34765625 C-2.99009766 30.33025391 -2.99009766 30.33025391 -4.1875 30.3125 C-4.17964478 32.03134399 -4.17964478 32.03134399 -4.17163086 33.78491211 C-4.15358283 38.02090682 -4.14206872 42.25689812 -4.13256836 46.49291992 C-4.12752769 48.32918875 -4.12069523 50.16545354 -4.11206055 52.00170898 C-4.09998328 54.63526401 -4.09426919 57.26876616 -4.08984375 59.90234375 C-4.08468246 60.72838608 -4.07952118 61.55442841 -4.07420349 62.40550232 C-4.07400795 64.37486368 -4.12545848 66.34411614 -4.1875 68.3125 C-5.1875 69.3125 -5.1875 69.3125 -7.875 69.4453125 C-8.968125 69.44273437 -10.06125 69.44015625 -11.1875 69.4375 C-12.280625 69.44007813 -13.37375 69.44265625 -14.5 69.4453125 C-17.1875 69.3125 -17.1875 69.3125 -18.1875 68.3125 C-18.27611992 65.5008662 -18.30272355 62.71391745 -18.28515625 59.90234375 C-18.2837413 59.06030899 -18.28232635 58.21827423 -18.28086853 57.35072327 C-18.27525263 54.65044665 -18.26269748 51.95025172 -18.25 49.25 C-18.24498705 47.42382932 -18.24042379 45.59765734 -18.23632812 43.77148438 C-18.22527804 39.28512458 -18.20800279 34.79882616 -18.1875 30.3125 C-19.8890625 30.3434375 -19.8890625 30.3434375 -21.625 30.375 C-25.1875 30.3125 -25.1875 30.3125 -26.1875 29.3125 C-26.32943337 26.30918982 -26.22986378 23.32032866 -26.1875 20.3125 C-23.2175 20.3125 -20.2475 20.3125 -17.1875 20.3125 C-17.23390625 19.50425781 -17.2803125 18.69601562 -17.328125 17.86328125 C-17.62298809 9.13322756 -17.62298809 9.13322756 -15.5625 5.25 C-10.56595738 1.17387313 -6.42331325 -0.08949954 0 0 Z " fill="#1A6432" transform="translate(281.1875,319.6875)"/>
<path d="M0 0 C0 3.3 0 6.6 0 10 C-3.46941546 9.54177532 -6.67395049 9.10868317 -10 8 C-15.14943278 7.5982661 -15.14943278 7.5982661 -20 9 C-19.67 10.65 -19.34 12.3 -19 14 C-17.7315625 14.31130859 -17.7315625 14.31130859 -16.4375 14.62890625 C-8.82308802 16.69691132 -3.26466287 18.99591819 2 25 C3.86101774 28.72203547 3.42561582 32.93787255 3 37 C0.86874933 41.91114286 -2.42477115 44.67960872 -7.10546875 47.0859375 C-15.73775622 49.81192302 -25.95226426 49.02386787 -34 45 C-34 41.37 -34 37.74 -34 34 C-30.87709365 34.48578543 -28.00419641 34.9986012 -25 36 C-23.16943607 36.11854556 -21.33435694 36.17517233 -19.5 36.1875 C-18.5409375 36.20167969 -17.581875 36.21585937 -16.59375 36.23046875 C-13.76253861 36.18755111 -13.76253861 36.18755111 -11 34 C-11 32.68 -11 31.36 -11 30 C-12.00160156 29.70867187 -13.00320313 29.41734375 -14.03515625 29.1171875 C-21.56848831 26.82957386 -27.49027417 24.90327768 -33 19 C-35.0541297 14.89174059 -34.36878996 9.62267581 -33.375 5.25 C-31.21804339 1.72043464 -28.2115466 -1.20483718 -24.26171875 -2.625 C-16.18838132 -3.96358444 -7.18705592 -4.20705713 0 0 Z " fill="#1C6533" transform="translate(521,342)"/>
<path d="M0 0 C1.50046875 0.00386719 1.50046875 0.00386719 3.03125 0.0078125 C4.0315625 0.00523437 5.031875 0.00265625 6.0625 0 C8.53125 0.1328125 8.53125 0.1328125 9.53125 1.1328125 C9.63068972 3.21356659 9.65924596 5.29773098 9.66064453 7.38085938 C9.66239685 8.03288834 9.66414917 8.6849173 9.66595459 9.35670471 C9.67037204 11.52168403 9.66743551 13.68658229 9.6640625 15.8515625 C9.66473557 17.34989437 9.66570562 18.84822613 9.66696167 20.34655762 C9.6684385 23.49065183 9.66628458 26.63471767 9.66162109 29.77880859 C9.6559238 33.81767789 9.65920289 37.85648074 9.66519356 41.8953476 C9.66879958 44.9904633 9.66766039 48.08556315 9.66506577 51.18067932 C9.66439661 52.67029325 9.66522452 54.1599086 9.66754532 55.64952087 C9.67007253 57.72797485 9.66623033 59.80631981 9.66064453 61.88476562 C9.65984894 63.06977661 9.65905334 64.2547876 9.65823364 65.47570801 C9.53125 68.1328125 9.53125 68.1328125 8.53125 69.1328125 C6.51160801 69.20525303 4.48957876 69.21658438 2.46875 69.1953125 C1.36402344 69.18628906 0.25929688 69.17726563 -0.87890625 69.16796875 C-1.73355469 69.15636719 -2.58820313 69.14476562 -3.46875 69.1328125 C-3.49187589 60.2839886 -3.50966634 51.43517503 -3.52056217 42.58632755 C-3.52579046 38.47786965 -3.53288713 34.36943236 -3.54418945 30.26098633 C-3.55502025 26.29934422 -3.56102724 22.33772198 -3.56362724 18.37606621 C-3.56548114 16.86132939 -3.5691011 15.34659371 -3.57448006 13.83186531 C-3.58169307 11.71739437 -3.58274083 9.60300656 -3.58227539 7.48852539 C-3.584496 6.28273331 -3.58671661 5.07694122 -3.58900452 3.83460999 C-3.42653431 0.18433887 -3.42653431 0.18433887 0 0 Z " fill="#186330" transform="translate(414.46875,319.8671875)"/>
<path d="M0 0 C4.62 0 9.24 0 14 0 C14.02464247 6.81762424 14.04283244 13.6352228 14.05493164 20.45288086 C14.05997333 22.77417451 14.06680651 25.09546497 14.07543945 27.41674805 C14.08751225 30.74528795 14.09322979 34.07378602 14.09765625 37.40234375 C14.10281754 38.44712387 14.10797882 39.49190399 14.11329651 40.56834412 C14.11337204 41.52926468 14.11344757 42.49018524 14.11352539 43.48022461 C14.115746 44.33071884 14.11796661 45.18121307 14.12025452 46.05747986 C14 48 14 48 13 49 C11.00200428 49.09873816 9.00042842 49.12971799 7 49.125 C5.906875 49.12757813 4.81375 49.13015625 3.6875 49.1328125 C1 49 1 49 0 48 C-0.09311889 46.49581261 -0.11746028 44.98728644 -0.11352539 43.48022461 C-0.11344986 42.51930405 -0.11337433 41.55838348 -0.11329651 40.56834412 C-0.10813522 39.523564 -0.10297394 38.47878387 -0.09765625 37.40234375 C-0.0962413 36.33834854 -0.09482635 35.27435333 -0.09336853 34.17811584 C-0.08775064 30.76454917 -0.07519511 27.351047 -0.0625 23.9375 C-0.05748731 21.62955824 -0.052924 19.32161545 -0.04882812 17.01367188 C-0.03777539 11.34242289 -0.02049877 5.6712224 0 0 Z " fill="#1A6431" transform="translate(385,340)"/>
<path d="M0 0 C1.91015625 0.37890625 1.91015625 0.37890625 4.47265625 1.94140625 C5.91015625 4.37890625 5.91015625 4.37890625 5.84765625 7.94140625 C4.91015625 11.37890625 4.91015625 11.37890625 3.84765625 13.31640625 C0.63703889 15.07706738 -2.58979577 15.13243771 -6.08984375 14.37890625 C-8.85370557 11.96052715 -9.88819952 10.41233291 -10.58984375 6.81640625 C-9.37475211 0.8928345 -5.48354718 -0.31773825 0 0 Z " fill="#1E6633" transform="translate(394.08984375,318.62109375)"/>
<path d="M0 0 C2.67218941 1.77003999 3.38075355 3.09652361 5 6 C5 7.32 5 8.64 5 10 C-1.93 10 -8.86 10 -16 10 C-15 4 -15 4 -13.625 1.625 C-9.32063115 -1.03960929 -4.90008235 -0.9713181 0 0 Z " fill="#F1F3F0" transform="translate(184,349)"/>
<path d="M0 0 C3.0625 1.625 3.0625 1.625 5 4 C5.33 5.98 5.66 7.96 6 10 C-0.6 10 -7.2 10 -14 10 C-14 4 -14 4 -12.625 1.625 C-8.54919497 -0.8981174 -4.66168487 -0.73923158 0 0 Z " fill="#F3F4F1" transform="translate(462,349)"/>
<path d="M0 0 C1.21236328 0.01353516 1.21236328 0.01353516 2.44921875 0.02734375 C3.37154297 0.04474609 3.37154297 0.04474609 4.3125 0.0625 C4.72918469 4.31268379 4.75272082 6.41592568 2.3125 10 C-1.80362499 12.82983593 -3.76525886 12.69762789 -8.6875 12.0625 C-10.6875 10.875 -10.6875 10.875 -11.6875 9.0625 C-12.125 6.5625 -12.125 6.5625 -11.6875 4.0625 C-8.16074585 0.65735806 -4.77854415 -0.06925426 0 0 Z " fill="#F2F4F1" transform="translate(231.6875,366.9375)"/>
<path d="M0 0 C0.33 0 0.66 0 1 0 C2.19704845 12.33387416 2.09587482 24.62149495 2 37 C5.3 37 8.6 37 12 37 C12.33 37.66 12.66 38.32 13 39 C11.02090602 39.02686553 9.04171029 39.04633375 7.0625 39.0625 C5.96035156 39.07410156 4.85820312 39.08570313 3.72265625 39.09765625 C1 39 1 39 0 38 C-0.08861992 35.1883662 -0.11522355 32.40141745 -0.09765625 29.58984375 C-0.0962413 28.74780899 -0.09482635 27.90577423 -0.09336853 27.03822327 C-0.08775263 24.33794665 -0.07519748 21.63775172 -0.0625 18.9375 C-0.05748705 17.11132932 -0.05292379 15.28515734 -0.04882812 13.45898438 C-0.03777804 8.97262458 -0.02050279 4.48632616 0 0 Z " fill="#54825F" transform="translate(263,350)"/>
<path d="M0 0 C0.66 0.33 1.32 0.66 2 1 C-0.31 3.64 -2.62 6.28 -5 9 C-5.66 8.67 -6.32 8.34 -7 8 C-4.69 5.36 -2.38 2.72 0 0 Z " fill="#397047" transform="translate(165,341)"/>
</svg>
